<svg xmlns="http://www.w3.org/2000/svg" width="192" viewBox="0 0 192 192" height="192" version="1.0"><defs><clipPath id="a"><path d="M 22.40625 22.40625 L 169.40625 22.40625 L 169.40625 169.40625 L 22.40625 169.40625 Z M 22.40625 22.40625"/></clipPath><clipPath id="b"><path d="M 75.851562 75.851562 L 116.351562 75.851562 L 116.351562 116.351562 L 75.851562 116.351562 Z M 75.851562 75.851562"/></clipPath></defs><path fill="#FFF" d="M-19.2 -19.2H211.20000000000002V211.20000000000002H-19.2z"/><path fill="#FFF" d="M-19.2 -19.2H211.20000000000002V211.20000000000002H-19.2z"/><path fill="#FFF" d="M-19.2 -19.2H211.20000000000002V211.20000000000002H-19.2z"/><g clip-path="url(#a)"><path fill="#EA006A" d="M 95.902344 22.40625 C 55.3125 22.40625 22.40625 55.3125 22.40625 95.902344 C 22.40625 136.496094 55.3125 169.398438 95.902344 169.398438 C 136.496094 169.398438 169.398438 136.496094 169.398438 95.902344 C 169.398438 55.3125 136.496094 22.40625 95.902344 22.40625 Z M 95.902344 70.855469 C 89.027344 70.855469 82.585938 73.652344 77.765625 78.734375 C 73.304688 83.433594 70.855469 89.53125 70.855469 95.902344 C 70.855469 103.40625 64.769531 109.488281 57.269531 109.488281 C 49.765625 109.488281 43.683594 103.40625 43.683594 95.902344 C 43.683594 82.546875 48.785156 69.808594 58.050781 60.039062 C 67.90625 49.644531 81.703125 43.683594 95.902344 43.683594 C 103.40625 43.683594 109.488281 49.765625 109.488281 57.269531 C 109.488281 64.769531 103.40625 70.855469 95.902344 70.855469 Z M 95.902344 70.855469"/></g><g clip-path="url(#b)"><path fill="#FFF" d="M 96.105469 75.851562 C 107.292969 75.851562 116.359375 84.921875 116.359375 96.105469 C 116.359375 107.289062 107.292969 116.359375 96.105469 116.359375 C 84.921875 116.359375 75.851562 107.289062 75.851562 96.105469 C 75.851562 84.921875 84.921875 75.851562 96.105469 75.851562"/></g><path d="M 104.476562 95.324219 L 93.492188 87.429688 C 92.921875 87.019531 92.164062 86.960938 91.535156 87.28125 C 90.90625 87.601562 90.507812 88.246094 90.503906 88.949219 L 90.402344 104.59375 C 90.394531 105.300781 90.785156 105.949219 91.410156 106.277344 C 91.683594 106.417969 91.980469 106.492188 92.277344 106.492188 C 92.660156 106.496094 93.042969 106.378906 93.367188 106.152344 L 104.457031 98.402344 C 104.957031 98.054688 105.257812 97.480469 105.261719 96.871094 C 105.265625 96.257812 104.972656 95.679688 104.476562 95.324219"/></svg>